<svg xmlns="http://www.w3.org/2000/svg" xmlns:xlink="http://www.w3.org/1999/xlink" width="929.49" height="629.686" viewBox="0 0 929.49 629.686">
  <defs>
    <linearGradient id="linear-gradient" x1="0.5" y1="1" x2="0.5" gradientUnits="objectBoundingBox">
      <stop offset="0" stop-color="gray" stop-opacity="0.251"/>
      <stop offset="0.54" stop-color="gray" stop-opacity="0.122"/>
      <stop offset="1" stop-color="gray" stop-opacity="0.102"/>
    </linearGradient>
    <linearGradient id="linear-gradient-4" x1="0.5" y1="1" x2="0.5" y2="0" xlink:href="#linear-gradient"/>
    <linearGradient id="linear-gradient-12" x1="0" y1="0.5" x2="1" y2="0.5" xlink:href="#linear-gradient"/>
  </defs>
  <g id="undraw_schedule_pnbk" transform="translate(0.002 -0.004)">
    <path id="Path_213" data-name="Path 213" d="M536.714,158.61c-57.121-.09-112.158-17.837-164.814-37.586S267.007,79.252,210.919,69.8C174.8,63.73,133.844,64.141,105.714,85.712,78.651,106.471,70.9,140.921,67.193,172.785c-2.783,23.952-4.03,49.11,6.706,71.059,7.461,15.243,20.184,27.818,29.189,42.355,31.331,50.563,12.739,114.916-17.434,166.48C71.494,476.82,54.9,499.992,44.226,525.569s-15,54.6-3.973,79.908c10.95,25.093,35.575,43.389,61.915,55.874,53.592,25.446,115.868,31.044,176.478,33.317,134.189,5.04,268.583-3.94,402.624-12.969,49.6-3.332,99.427-6.7,147.987-16.654,26.964-5.524,54.716-13.757,73.792-31.947,24.214-23.082,29.074-60.881,11.336-88.108-29.763-45.712-107.873-54.544-129.3-103.941-11.8-27.194-1.781-58.279,13.018-84.43,31.758-56.054,86.548-106.19,87.3-169,.509-43.143-28.179-85.309-70.895-104.188C769.722,63.615,708.784,68.491,677.568,105,645.424,142.6,587.154,158.692,536.714,158.61Z" transform="translate(-33.81 -66.43)" fill="#2cc3e9" opacity="0.39"/>
    <path id="Path_214" data-name="Path 214" d="M988.266,691.64s-10.088-6.657-20.086-1.921c0,0,3.078,5.935,15.735,5.368Z" transform="translate(-201.224 -177.801)" fill="#2cc3e9"/>
    <path id="Path_215" data-name="Path 215" d="M992.7,692.87s3.07,11.688-4.621,19.642c0,0-4.63-4.826,0-16.63Z" transform="translate(-204.421 -178.67)" fill="#2cc3e9"/>
    <path id="Path_216" data-name="Path 216" d="M1004.429,677.6s-.747-9.948-23.188-6.649c0,0-.107,6.419,7.773,9.456S1000.5,680.886,1004.429,677.6Z" transform="translate(-203.564 -174.623)" fill="#2cc3e9"/>
    <path id="Path_217" data-name="Path 217" d="M1009.735,679.11s9.5,3.053,1.034,24.108c0,0-6.263-1.4-7.387-9.776S1005.623,682.164,1009.735,679.11Z" transform="translate(-207.492 -176.205)" fill="#2cc3e9"/>
    <path id="Path_218" data-name="Path 218" d="M1021.924,658.7s1.281-16.359-21.662-14.676c0,0-1.642,14.775,17.607,18.608Z" transform="translate(-206.966 -169.897)" fill="#2cc3e9"/>
    <path id="Path_219" data-name="Path 219" d="M1039.438,636.366s-3.152-18.534-26.078-13.01c0,0-.09,16.031,22.327,17.434Z" transform="translate(-209.319 -166.031)" fill="#2cc3e9"/>
    <path id="Path_220" data-name="Path 220" d="M1052.512,613.188s-5.262-18.058-27.982-12.649c0,0,5.4,16.236,26.472,15.99Z" transform="translate(-211.321 -161.946)" fill="#2cc3e9"/>
    <path id="Path_221" data-name="Path 221" d="M1065.527,590.365s-5.147-18.739-27.087-13.133c0,0,7.322,17.8,25.643,16.31Z" transform="translate(-213.813 -157.763)" fill="#2cc3e9"/>
    <path id="Path_222" data-name="Path 222" d="M1074.387,567.826s-3.956-22.885-24.387-17.845c0,0,5.943,20.849,22.9,21.177Z" transform="translate(-215.884 -152.939)" fill="#2cc3e9"/>
    <path id="Path_223" data-name="Path 223" d="M1081.9,541.961s-4.744-23.106-25.446-16.417c0,0,8.118,21.826,23.984,19.568Z" transform="translate(-217.04 -148.472)" fill="#2cc3e9"/>
    <path id="Path_224" data-name="Path 224" d="M1087.111,516.632s-7.543-23.1-23.541-22.474c0,0,7.716,24.4,22.162,27.087Z" transform="translate(-218.315 -143.064)" fill="#2cc3e9"/>
    <path id="Path_225" data-name="Path 225" d="M1090.667,492.242s-8.208-27.81-21.227-25.667c0,0,5.68,21.259,20.767,29.993Z" transform="translate(-219.367 -138.103)" fill="#2cc3e9"/>
    <path id="Path_226" data-name="Path 226" d="M1092.521,464.329s-7.691-23.18-20.521-24.1c0,0,5.237,22.8,20.258,30.116Z" transform="translate(-219.826 -133.404)" fill="#2cc3e9"/>
    <path id="Path_227" data-name="Path 227" d="M1094.988,438.082s-9.6-23.2-18.058-23.722c0,0,4.162,22.835,17.237,27.531Z" transform="translate(-220.709 -128.769)" fill="#2cc3e9"/>
    <path id="Path_228" data-name="Path 228" d="M1097.081,412.784s-5.926-25.232-14.381-27.284c0,0,1.165,20.6,13.535,29.164Z" transform="translate(-221.743 -123.598)" fill="#2cc3e9"/>
    <path id="Path_229" data-name="Path 229" d="M1101.256,381.6s-6.206-20.077-13.076-23.139c0,0,1.363,23.673,11.492,28.056Z" transform="translate(-222.725 -118.753)" fill="#2cc3e9"/>
    <path id="Path_230" data-name="Path 230" d="M1106.215,357.85l1.255-35.41s-12.821,26.718-2.2,41.657Z" transform="translate(-225.033 -112.299)" fill="#2cc3e9"/>
    <path id="Path_231" data-name="Path 231" d="M1118.339,316.751s9.243-25.864,11.492-27.3c0,0-18.141,16.769-16.367,38.357Z" transform="translate(-227.233 -106.388)" fill="#2cc3e9"/>
    <path id="Path_232" data-name="Path 232" d="M1026.608,661.779s16.269-2.134,15.776,20.865c0,0-14.7,2.389-19.495-16.622Z" transform="translate(-211.027 -173.09)" fill="#2cc3e9"/>
    <path id="Path_233" data-name="Path 233" d="M1045.241,638.68s18.805-.066,17.238,23.476c0,0-15.776,2.815-20.988-19.035Z" transform="translate(-214.359 -168.961)" fill="#2cc3e9"/>
    <path id="Path_234" data-name="Path 234" d="M1058.512,617.667s17.065-8,27.99,12.649c0,0-15.768,6.673-29.492-9.316Z" transform="translate(-217.14 -164.923)" fill="#2cc3e9"/>
    <path id="Path_235" data-name="Path 235" d="M1071.595,593.28s17.467-8.52,27.728,11.664c0,0-18.2,6.271-29.172-8.471Z" transform="translate(-219.494 -160.507)" fill="#2cc3e9"/>
    <path id="Path_236" data-name="Path 236" d="M1079.27,570.934s16.819-16.063,30.24.189c0,0-17.18,13.215-31.019,3.39Z" transform="translate(-220.989 -155.553)" fill="#2cc3e9"/>
    <path id="Path_237" data-name="Path 237" d="M1086.159,543.6s16.926-16.416,30.239.755c0,0-18.994,13.486-30.838,2.692Z" transform="translate(-222.256 -150.656)" fill="#2cc3e9"/>
    <path id="Path_238" data-name="Path 238" d="M1090.15,517.116s13.035-20.521,28.376-15.932c0,0-13.519,21.727-28.228,20.759Z" transform="translate(-223.078 -144.206)" fill="#2cc3e9"/>
    <path id="Path_239" data-name="Path 239" d="M1094.756,492.936s13.133-25.848,25.552-21.342c0,0-9.464,19.864-25.889,25.7Z" transform="translate(-223.843 -138.929)" fill="#2cc3e9"/>
    <path id="Path_240" data-name="Path 240" d="M1095.645,464.055s13.5-20.34,26.151-17.861c0,0-11.032,20.627-27.456,23.746Z" transform="translate(-223.829 -134.435)" fill="#2cc3e9"/>
    <path id="Path_241" data-name="Path 241" d="M1097.19,437.674s10.457-22.819,18.969-23.024c0,0-5.023,22.671-18.272,26.866Z" transform="translate(-224.339 -128.821)" fill="#2cc3e9"/>
    <path id="Path_242" data-name="Path 242" d="M1099.71,413.076s11.631-23.115,20.373-23.155c0,0-5.951,19.757-19.979,25.191Z" transform="translate(-224.791 -124.39)" fill="#2cc3e9"/>
    <path id="Path_243" data-name="Path 243" d="M1101.85,383.732s8.7-19.125,15.9-21.292c0,0-4.35,23.311-14.947,26.365Z" transform="translate(-225.174 -119.466)" fill="#2cc3e9"/>
    <path id="Path_244" data-name="Path 244" d="M1107.99,358.3l19.437-29.615s-4.974,29.213-22.277,35.3Z" transform="translate(-225.766 -113.417)" fill="#2cc3e9"/>
    <path id="Path_245" data-name="Path 245" d="M1122.813,321.654s22.6-15.6,23.41-18.124c0,0-11.492,21.85-32.833,25.708Z" transform="translate(-227.242 -108.911)" fill="#2cc3e9"/>
    <path id="Path_246" data-name="Path 246" d="M1126.374,311.622s25.946-24.945,32.57-24.912c0,0-21.4.977-33.194,23.582Z" transform="translate(-229.456 -105.897)" fill="#2cc3e9"/>
    <path id="Path_247" data-name="Path 247" d="M1102.15,378.857l.943.123c4.876-38.168,11.984-60.741,20.02-63.516l-.312-.895C1114.29,317.525,1107.149,339.753,1102.15,378.857Z" transform="translate(-225.228 -110.889)" fill="#444053"/>
    <path id="Path_248" data-name="Path 248" d="M1093.42,483.523l1.428.123c.3-3.562.525-7.215.681-10.843,1.363-31.594,3.48-60.593,6.255-82.337l-.821-1.026c-2.782,21.785-5.491,51.671-6.854,83.3C1093.945,476.349,1093.715,479.977,1093.42,483.523Z" transform="translate(-223.664 -124.304)" fill="#444053"/>
    <path id="Path_249" data-name="Path 249" d="M960.023,676.248c.254-.115,25.4-11.336,51.491-38.119a207.2,207.2,0,0,0,37.635-53.354c12.058-24.567,19.413-54.757,21.883-84.086l-1.486.7c-5.54,65.822-35.509,110.812-59.345,135.305-25.84,26.546-50.694,37.66-50.941,37.758Z" transform="translate(-199.626 -144.237)" fill="#444053"/>
    <path id="Path_250" data-name="Path 250" d="M908.822,115.31H120.106a7.026,7.026,0,0,0-7.026,7.026v20.471H915.849V122.336a7.026,7.026,0,0,0-7.026-7.026Z" transform="translate(-48.013 -75.187)" fill="#3f3d56"/>
    <path id="Path_251" data-name="Path 251" d="M113.08,148.81V609.491a14.168,14.168,0,0,0,14.167,14.167H901.681a14.168,14.168,0,0,0,14.167-14.167V148.81Z" transform="translate(-48.013 -81.189)" fill="#fff"/>
    <circle id="Ellipse_40" data-name="Ellipse 40" cx="3.283" cy="3.283" r="3.283" transform="translate(74.506 50.375)" fill="#fa5959" opacity="0.8"/>
    <circle id="Ellipse_41" data-name="Ellipse 41" cx="3.283" cy="3.283" r="3.283" transform="translate(83.535 50.375)" fill="#fed253" opacity="0.8"/>
    <circle id="Ellipse_42" data-name="Ellipse 42" cx="3.283" cy="3.283" r="3.283" transform="translate(92.564 50.375)" fill="#8ccf4d" opacity="0.8"/>
    <g id="Group_144" data-name="Group 144" transform="translate(95.848 95.52)" opacity="0.3">
      <rect id="Rectangle_43" data-name="Rectangle 43" width="742.028" height="418.622" fill="none" stroke="#3f3d56" stroke-miterlimit="10" stroke-width="1"/>
      <rect id="Rectangle_44" data-name="Rectangle 44" width="548.313" height="418.622" transform="translate(96.858)" fill="none" stroke="#3f3d56" stroke-miterlimit="10" stroke-width="1"/>
      <rect id="Rectangle_45" data-name="Rectangle 45" width="354.597" height="418.622" transform="translate(193.715)" fill="none" stroke="#3f3d56" stroke-miterlimit="10" stroke-width="1"/>
      <rect id="Rectangle_46" data-name="Rectangle 46" width="160.882" height="418.622" transform="translate(290.573)" fill="none" stroke="#3f3d56" stroke-miterlimit="10" stroke-width="1"/>
      <line id="Line_10" data-name="Line 10" y2="418.622" transform="translate(371.014)" fill="none" stroke="#3f3d56" stroke-miterlimit="10" stroke-width="1"/>
      <rect id="Rectangle_47" data-name="Rectangle 47" width="742.028" height="297.139" transform="translate(0 60.741)" fill="none" stroke="#3f3d56" stroke-miterlimit="10" stroke-width="1"/>
      <rect id="Rectangle_48" data-name="Rectangle 48" width="742.028" height="177.299" transform="translate(0 120.662)" fill="none" stroke="#3f3d56" stroke-miterlimit="10" stroke-width="1"/>
      <rect id="Rectangle_49" data-name="Rectangle 49" width="742.028" height="57.458" transform="translate(0 180.582)" fill="none" stroke="#3f3d56" stroke-miterlimit="10" stroke-width="1"/>
    </g>
    <rect id="Rectangle_50" data-name="Rectangle 50" width="58.279" height="21.342" transform="translate(211.995 118.914)" fill="#3f3d56" opacity="0.1"/>
    <rect id="Rectangle_51" data-name="Rectangle 51" width="43.504" height="21.342" transform="translate(120.883 177.193)" fill="#3f3d56" opacity="0.1"/>
    <rect id="Rectangle_52" data-name="Rectangle 52" width="58.279" height="21.342" transform="translate(306.39 118.914)" fill="#3f3d56" opacity="0.1"/>
    <rect id="Rectangle_53" data-name="Rectangle 53" width="58.279" height="21.342" transform="translate(395.039 118.914)" fill="#3f3d56" opacity="0.1"/>
    <rect id="Rectangle_54" data-name="Rectangle 54" width="58.279" height="21.342" transform="translate(477.122 118.914)" fill="#3f3d56" opacity="0.1"/>
    <rect id="Rectangle_55" data-name="Rectangle 55" width="58.279" height="21.342" transform="translate(569.054 118.914)" fill="#3f3d56" opacity="0.1"/>
    <rect id="Rectangle_56" data-name="Rectangle 56" width="58.279" height="21.342" transform="translate(662.629 118.914)" fill="#3f3d56" opacity="0.1"/>
    <rect id="Rectangle_57" data-name="Rectangle 57" width="58.279" height="21.342" transform="translate(761.949 118.914)" fill="#3f3d56" opacity="0.1"/>
    <rect id="Rectangle_58" data-name="Rectangle 58" width="37.865" height="36.658" transform="translate(327.337 234.61)" fill="url(#linear-gradient)"/>
    <rect id="Rectangle_59" data-name="Rectangle 59" width="36.56" height="35.394" transform="translate(327.994 235.242)" fill="#7cfcff"/>
    <rect id="Rectangle_60" data-name="Rectangle 60" width="37.865" height="36.658" transform="translate(405.349 226.664)" fill="url(#linear-gradient)"/>
    <rect id="Rectangle_61" data-name="Rectangle 61" width="36.56" height="35.394" transform="translate(406.005 227.296)" fill="#ffffa5"/>
    <rect id="Rectangle_62" data-name="Rectangle 62" width="37.865" height="36.658" transform="translate(555.56 351.43)" fill="url(#linear-gradient)"/>
    <rect id="Rectangle_63" data-name="Rectangle 63" width="36.56" height="35.394" transform="translate(556.217 352.062)" fill="#ffffa5"/>
    <rect id="Rectangle_64" data-name="Rectangle 64" width="37.865" height="36.658" transform="translate(222.091 169.28)" fill="url(#linear-gradient-4)"/>
    <rect id="Rectangle_65" data-name="Rectangle 65" width="36.56" height="35.394" transform="translate(222.739 169.912)" fill="#ffffa5"/>
    <rect id="Rectangle_66" data-name="Rectangle 66" width="37.865" height="36.658" transform="translate(297.328 221.813)" fill="url(#linear-gradient-4)"/>
    <rect id="Rectangle_67" data-name="Rectangle 67" width="36.56" height="35.394" transform="translate(297.976 222.445)" fill="#ff69b4"/>
    <rect id="Rectangle_68" data-name="Rectangle 68" width="37.865" height="36.658" transform="translate(599.852 351.167)" fill="url(#linear-gradient)"/>
    <rect id="Rectangle_69" data-name="Rectangle 69" width="36.56" height="35.394" transform="translate(600.509 351.799)" fill="#7cfcff"/>
    <rect id="Rectangle_70" data-name="Rectangle 70" width="37.865" height="36.658" transform="translate(666.339 169.764)" fill="url(#linear-gradient)"/>
    <rect id="Rectangle_71" data-name="Rectangle 71" width="36.56" height="35.394" transform="translate(666.995 170.396)" fill="#7cfcff"/>
    <rect id="Rectangle_72" data-name="Rectangle 72" width="37.865" height="36.658" transform="translate(662.235 286.322)" fill="url(#linear-gradient)"/>
    <rect id="Rectangle_73" data-name="Rectangle 73" width="36.56" height="35.394" transform="translate(662.891 286.954)" fill="#7cfcff"/>
    <rect id="Rectangle_74" data-name="Rectangle 74" width="37.865" height="36.658" transform="translate(690.964 294.53)" fill="url(#linear-gradient)"/>
    <rect id="Rectangle_75" data-name="Rectangle 75" width="36.56" height="35.394" transform="translate(691.62 295.162)" fill="#7cfcff"/>
    <rect id="Rectangle_76" data-name="Rectangle 76" width="37.865" height="36.658" transform="translate(569.842 338.37)" fill="url(#linear-gradient-4)"/>
    <rect id="Rectangle_77" data-name="Rectangle 77" width="36.56" height="35.394" transform="translate(570.491 339.002)" fill="#ff69b4"/>
    <rect id="Rectangle_78" data-name="Rectangle 78" width="37.865" height="36.658" transform="translate(573.947 227.559)" fill="url(#linear-gradient-4)"/>
    <rect id="Rectangle_79" data-name="Rectangle 79" width="36.56" height="35.394" transform="translate(574.595 228.191)" fill="#ff69b4"/>
    <rect id="Rectangle_80" data-name="Rectangle 80" width="43.504" height="21.342" transform="translate(120.883 234.651)" fill="#3f3d56" opacity="0.1"/>
    <rect id="Rectangle_81" data-name="Rectangle 81" width="43.504" height="21.342" transform="translate(120.883 294.571)" fill="#3f3d56" opacity="0.1"/>
    <rect id="Rectangle_82" data-name="Rectangle 82" width="43.504" height="21.342" transform="translate(120.883 354.491)" fill="#3f3d56" opacity="0.1"/>
    <rect id="Rectangle_83" data-name="Rectangle 83" width="43.504" height="21.342" transform="translate(120.883 414.412)" fill="#3f3d56" opacity="0.1"/>
    <rect id="Rectangle_84" data-name="Rectangle 84" width="43.504" height="21.342" transform="translate(120.883 474.332)" fill="#3f3d56" opacity="0.1"/>
    <path id="Path_252" data-name="Path 252" d="M302.714,402.856c1.215-.772.731-2.84-.517-3.554s-2.8-.476-4.2-.2a1.715,1.715,0,0,0-.9-1.806v-.312a2.245,2.245,0,0,0-.492-3.185,6.425,6.425,0,0,0-3.907-.69,5.2,5.2,0,0,0-1.642-4.432,1.371,1.371,0,0,0-.9-.435c-.821,0-1.051,1.051-1.108,1.83a34.661,34.661,0,0,1-1.01,6.066l-25.511,42.683c-2.84,4.1,5.984-8.208,3.144-4.063a36.117,36.117,0,0,1-5.023,6.23,24.755,24.755,0,0,1-5.672,3.8,6.69,6.69,0,0,1-3.874-1.1,15.6,15.6,0,0,1-3.727-3.686,72.751,72.751,0,0,1-6.017-8.939,11.581,11.581,0,0,1-1.379-3.193c-.378-1.773,0-3.694-.7-5.36a8.759,8.759,0,0,0-1.1-1.74l-1.765-2.339v-.107c-.2-3.464-3.012-6.14-5.639-8.422-2.233-1.954-4.654-3.989-7.6-4.367-1.576-.205-3.193.1-4.769-.1-1.289-.164-2.512-.648-3.792-.862a16.087,16.087,0,0,0-3.718-.074l-.525-.484A14.71,14.71,0,0,0,217,398.44c1.215-1.962,1.88-4.227,3-6.246,1.371-2.462,3.406-4.5,4.925-6.862,3.669-5.606,4.342-12.821,2.856-19.355s-4.966-12.468-9.029-17.763c-7.88-10.195-21.1-13.954-33.539-11.984q-1.231.2-2.462.468a31.618,31.618,0,0,0-6.1,1.945,15.6,15.6,0,0,0-6.657,5.2,11.99,11.99,0,0,0-1.157,2.151,12.664,12.664,0,0,0-.558,1.773,18.392,18.392,0,0,0-.3,5.549c.049.632.115,1.264.189,1.9l.123.952c.082.632.172,1.264.263,1.9.131.952.254,1.9.345,2.84a18.049,18.049,0,0,1,.107,1.995v.5a8.151,8.151,0,0,1-.222,1.469,6.159,6.159,0,0,1-.246.78,9.721,9.721,0,0,1-1.157,2.126,26.87,26.87,0,0,1-2.077,2.553l-.714.821c-.238.271-.468.55-.706.821a30.094,30.094,0,0,0-2.569,3.472,16.9,16.9,0,0,0-1.01,1.9,13.627,13.627,0,0,0-.583,1.527,12.645,12.645,0,0,0-.443,2.134,2.017,2.017,0,0,1-.049.542v1.075a9.418,9.418,0,0,0,.115,1.067,7.585,7.585,0,0,0,.246,1.034,7.024,7.024,0,0,0,.386,1c0,.09.082.181.131.271l.131.271c.09.181.181.353.263.534a3.5,3.5,0,0,1,.271.821v.6a3.357,3.357,0,0,1-1.215,2.093c-.164.156-.328.3-.5.443l-.263.213-.534.419-.509.41a10.333,10.333,0,0,0-1.239,1.231,45.857,45.857,0,0,0-13.741,1.346,18.584,18.584,0,0,1-4.925.895,2.462,2.462,0,0,1-2.134-.895,3.144,3.144,0,0,1-.222-1.97,16.99,16.99,0,0,0-1.313-8.044,4.473,4.473,0,0,0-1.313-1.913,1.855,1.855,0,0,0-2.183-.115,20.464,20.464,0,0,1-.566,13.683,44.207,44.207,0,0,1-3.16,5.935c-1.871,3.193-2.922,6.846-4.588,10.154,1.863,6.312,1.445,13.051,2.462,19.568.911,6.066,3.029,11.877,5.155,17.631,1.642,4.342,3.349,8.873,6.829,11.927a6.222,6.222,0,0,0,4.227,1.839,7.386,7.386,0,0,0,3.283-1.248,12.863,12.863,0,0,0,2.783-2.044,7.2,7.2,0,0,0,.821-1.092,4.26,4.26,0,0,0,.616,1.543c2-4.318,4.2-8.537,6.567-12.665a10.852,10.852,0,0,0,1.97-1.346,1.766,1.766,0,0,0,.115.443c-.107.394-.205.821-.312,1.19s-.23.763-.345,1.133-.172.55-.263.821-.222.657-.345.985-.263.714-.4,1.067-.189.509-.3.755c-.254.624-.517,1.231-.821,1.839a5.749,5.749,0,0,0,.706.287l.156.049a5.748,5.748,0,0,0,.648.164h.238a4.61,4.61,0,0,0,.484.049h.714a7.023,7.023,0,0,0,1.732-.3l.32,1.313a46.911,46.911,0,0,1,1.576,9.029c.156,3.447-.443,6.952.222,10.342.337,1.765,1.018,3.456,1.264,5.229a22.283,22.283,0,0,1-.09,5.015q-.575,6.041-1.149,12.091a10.343,10.343,0,0,1-1.034,4.268c-.566.985-1.486,2.109-.911,3.086a20.519,20.519,0,0,1,2.881-.55c-.353,1.28-.673,2.569-.977,3.866a6.813,6.813,0,0,0-.23,2.98,20,20,0,0,1,.886,2.733c.148,1.477-.878,2.783-1.445,4.153-1.445,3.5.09,7.437,1.642,10.9l4.531,10.277,3.718,8.43c1.1,2.462,2.208,5.007,3.283,7.535a244.606,244.606,0,0,1,11.836,35.492,4.236,4.236,0,0,0,.616,1.543c.624.821,1.765,1.084,2.692,1.592a5.035,5.035,0,0,1,.558,8.019c.517,6.173-4.1,12.14-6.485,17.853-5.483,13.133-4.49,27.957-6.37,42.076l2.126-1.239a2.637,2.637,0,0,1,.69.451q-.074.394-.172.821a12.859,12.859,0,0,1-1.363,3.423c-1.239,2.126-3.136,4.022-3.423,6.468-.172,1.478.279,2.955.271,4.441v.41c-.189-.18-.476-.164-.9.172a5.294,5.294,0,0,0-1.338,2.52c-.369,1.059-.665,2.134-.96,3.209l-1.1,3.792a44.1,44.1,0,0,1-2.224,6.69,28.654,28.654,0,0,0-1.97,4.531,14.061,14.061,0,0,0-.337,3.891,11.665,11.665,0,0,0,.534,3.694,9.177,9.177,0,0,0,5.376,5.1,25.241,25.241,0,0,0,7.469,1.412,6.284,6.284,0,0,0,1.962-.058,5.328,5.328,0,0,0,1.9-.993c3.464-2.545,5.253-7.223,5.565-11.492a16.973,16.973,0,0,0-.468-2.61c.213-4.67-.468-9.366-.115-14.02.074.534.148,1.059.23,1.584L189,689.4a1.091,1.091,0,0,0-.279-.492,12.017,12.017,0,0,0-.312,5.984,35.713,35.713,0,0,0,1.724,5.8l1.116,3.119a7.446,7.446,0,0,0,1.33,2.586,7.371,7.371,0,0,0,3.891,1.822,42.892,42.892,0,0,0,9.423,1.641,2.133,2.133,0,0,0,1.239-.23,6.042,6.042,0,0,0,.558-.468,5.5,5.5,0,0,1,.9-.525,5.959,5.959,0,0,0,2.889-3.423,5.4,5.4,0,0,0-.533-4.424,10.329,10.329,0,0,0-1.272-1.543l-5.614-5.951a35.369,35.369,0,0,0-2.742-2.906,1.026,1.026,0,0,0-.9-.3c-1.527-3.809-1.33-8.257-1.067-12.435.082-1.248.763-3.833,1.034-5.959a9.618,9.618,0,0,0,2.98-1.642,4.5,4.5,0,0,0,1.715-2.561c2.832-14.463,7.387-28.483,11.689-42.576.427-1.387.821-2.783,1.256-4.17.181-.591.345-1.19.517-1.789s.287-.968.427-1.453c.23-.821.46-1.642.681-2.462.066-.222.123-.443.189-.665a.771.771,0,0,1,0-.131c.271-1.009.534-2.019.821-3.029.1-.394.205-.772.3-1.166.32-1.28.64-2.577.944-3.866a4.251,4.251,0,0,0,.115-.542,2.29,2.29,0,0,0-.09-1.371h0a1.779,1.779,0,0,0-.32-.46c-.09-.107-.189-.213-.287-.312a4.539,4.539,0,0,1-.312-.353,3.176,3.176,0,0,1-.575-1.075V600.9c0-.361-.049-.821-.074-1.248a13.108,13.108,0,0,1,.369-1.642c.1-.32.205-.64.3-.961s.246-.821.378-1.19a3.012,3.012,0,0,0,.747-2.027q.763-1.9,1.683-3.735a11.261,11.261,0,0,0,1.5-4.038,16.023,16.023,0,0,0-.476-3.833c-.821-5.335,1.642-10.531,3.456-15.6a69.173,69.173,0,0,0,3.053-11.492c.534-3,.9-6.14,2.5-8.734a13,13,0,0,0,1.346-2.331,9.176,9.176,0,0,0,.361-2.643,29.163,29.163,0,0,1,2.586-10.482,6.647,6.647,0,0,0,.673-2.044.743.743,0,0,0,0-.14v-.2l.419-.066c.714-4.523,1.436-9.563.944-14.118a21.53,21.53,0,0,0-7.215-13.626h.082a4.5,4.5,0,0,0,2.068-4.006,7.806,7.806,0,0,0-2.906-6.1,2.914,2.914,0,0,1-.985-1.018,3.1,3.1,0,0,1-.123-1.322,6.755,6.755,0,0,0-4.162-6.271,1.569,1.569,0,0,1-.681-.394,1.642,1.642,0,0,1-.181-1.2,7.33,7.33,0,0,0-3.538-6.7,11.559,11.559,0,0,0,.156-5.319c-.5-1.724-2.118-3.283-3.891-3.037,1.445-3.94-.607-8.323-.066-12.485.238-1.789.952-3.5,1.042-5.3.082-1.642-.32-3.4.476-4.826s2.676-2.545,2.192-4.1c-.205-.665-.821-1.124-1.108-1.773s.862-1.642,1.453-1.281c.279-.213.558-.435.821-.665a13.232,13.232,0,0,0,.493,2.462c.4,1.346,1.018,2.61,1.436,3.948.64,2.044.821,4.26,1.855,6.132,1.642,3,5.114,4.482,7.461,6.969,1.379,1.453,2.372,3.283,3.792,4.662a20.67,20.67,0,0,0,3.53,2.651l7.584,4.925A8.716,8.716,0,0,0,252.389,468a4.424,4.424,0,0,0,5.212-3.751,5.122,5.122,0,0,1-1.863-1.157.727.727,0,0,0,.32-.049,11.96,11.96,0,0,0,4.868-2.586c5.4-4.3,9.284-10.17,13.076-15.94,3.973-6.05,23.09-22.056,23.09-22.056v-6.485a23.342,23.342,0,0,0,6.37-5.426,7.035,7.035,0,0,0,1.6-4.1A3.653,3.653,0,0,0,302.714,402.856ZM143.72,418.411q-.55,3.538-1.354,7.026a66.762,66.762,0,0,1-2.265,7.937l-.3.821c-.271-.509-.542-1.01-.821-1.527-.616-1.289-1.116-2.627-1.642-3.965l-3.168-8.537c-.41-1.108-.821-2.389-.205-3.406a3.808,3.808,0,0,1,1.806-1.354,35.684,35.684,0,0,1,6.944-2.356,19.021,19.021,0,0,0,2.233-.591,33.646,33.646,0,0,0-1.231,5.951Zm3.5-10.671a1.272,1.272,0,0,1,0-1.24,2.826,2.826,0,0,1,.821-.575l.238-.164c-.328.681-.7,1.338-1.059,2Zm6.567-9.284a17.176,17.176,0,0,0-2.528,2.594A27.085,27.085,0,0,0,149.1,404.4a2.462,2.462,0,0,0-.9-2.462,5.232,5.232,0,0,1-.821-.558,1.724,1.724,0,0,1,.345-2.413,5.007,5.007,0,0,1,2.553-.87l3.784-.558c-.115.32-.189.632-.271.944Zm35.427,274.69a13.735,13.735,0,0,0-.222-3.39h1.4C190.006,670.848,189.612,672.005,189.218,673.147Z" transform="translate(-49.678 -114.68)" fill="url(#linear-gradient-12)"/>
    <path id="Path_253" data-name="Path 253" d="M190.2,339.228c-6.567,1.059-13.872,3.587-16.417,9.743-1.9,4.654-.427,9.891.057,14.89a11.49,11.49,0,0,1-.14,3.965c-.542,2.11-2.036,3.817-3.48,5.45a28.9,28.9,0,0,0-5,7.01,10.189,10.189,0,0,0-.337,8.372,6.033,6.033,0,0,1,.821,2.208c.082,1.707-1.707,2.791-3.021,3.883-4.925,4.1-4.72,11.492-4.761,17.919a90.873,90.873,0,0,1-8.528,37.914,11.582,11.582,0,0,0,12.944-1.691,43.13,43.13,0,0,1-2.939,8.471c4.17,2.019,9.2-1.3,11.295-5.434s2.339-8.947,3.825-13.338,4.1-8.208,5.262-12.632a11.753,11.753,0,0,1,1.494-4.236,11.149,11.149,0,0,1,2.627-2.241,25.634,25.634,0,0,0,9.284-12.583c5.106,1.125,10.318,2.257,15.522,1.781s10.523-2.832,13.273-7.281c1.215-1.962,1.872-4.219,3-6.238,1.379-2.462,3.406-4.5,4.925-6.854,3.661-5.606,4.334-12.8,2.848-19.339s-4.925-12.444-9.029-17.738C215.862,341.017,202.647,337.233,190.2,339.228Z" transform="translate(-54.521 -115.215)" fill="#303d5c"/>
    <path id="Path_254" data-name="Path 254" d="M147.673,437.005c-.369,2.348-.821,4.7-1.346,7.018a68.677,68.677,0,0,1-2.265,7.929,7.568,7.568,0,0,0-.714,3.645,6.623,6.623,0,0,0,.878,2.167c3,5.327,7.051,10.474,7.387,16.581.082,1.518,0,3.168.821,4.424q3.472-7.478,7.667-14.578c2.922-4.925,6.173-9.965,7.01-15.661a29.344,29.344,0,0,0-.107-8.044c-.386-3-1.059-6.066-2.881-8.463-1.986-2.594-7.387-6.509-10.942-5.7C149.052,427.27,148.2,433.664,147.673,437.005Z" transform="translate(-53.434 -130.893)" fill="#2cc3e9"/>
    <path id="Path_255" data-name="Path 255" d="M277.473,461.5c3.923-1.6,7.929-3.283,11.04-6.173a36.115,36.115,0,0,0,5.024-6.23l9.234-13.322c2.183-3.168,4.441-6.493,4.925-10.31a33.948,33.948,0,0,0,9.218-20.964c.066-.78.328-1.806,1.108-1.83a1.371,1.371,0,0,1,.9.435,5.2,5.2,0,0,1,1.642,4.424,6.1,6.1,0,0,1,3.907.689c1.1.788,1.4,2.742.213,3.39a1.691,1.691,0,0,1,1.174,1.913,6.158,6.158,0,0,1,4.211.2c1.248.706,1.724,2.774.517,3.546a3.661,3.661,0,0,1,2.339,3.5,6.96,6.96,0,0,1-1.6,4.1c-3.546,4.761-9.8,6.682-13.913,10.966a33.143,33.143,0,0,0-3.62,4.835L301.885,458.8c-3.784,5.746-7.667,11.631-13.068,15.916a11.959,11.959,0,0,1-4.868,2.586,5.36,5.36,0,0,1-5.114-1.42c-1.19-1.354-1.371-3.283-1.486-5.1C277.153,467.729,277.678,464.577,277.473,461.5Z" transform="translate(-77.438 -126.674)" fill="#ee8e9e"/>
    <path id="Path_256" data-name="Path 256" d="M224.228,778.746a9.933,9.933,0,0,1,1.272,1.543,5.384,5.384,0,0,1,.533,4.416,5.9,5.9,0,0,1-2.881,3.415,5.27,5.27,0,0,0-.911.525,5.177,5.177,0,0,1-.558.476,2.273,2.273,0,0,1-1.239.23,43.81,43.81,0,0,1-9.415-1.642,7.588,7.588,0,0,1-3.891-1.822,7.445,7.445,0,0,1-1.33-2.586l-1.116-3.111a36.066,36.066,0,0,1-1.716-5.8,11.887,11.887,0,0,1,.312-5.976,1.88,1.88,0,0,1,.41,1.223,13.38,13.38,0,0,0,2.4,5.8,5.884,5.884,0,0,0,.936,1.174,5.958,5.958,0,0,0,2.8,1.174,34.715,34.715,0,0,0,5.959.763,1.641,1.641,0,0,0,.821-.1,1.469,1.469,0,0,0,.681-.821,3.628,3.628,0,0,0,0-2.463c-.542-1.518-2.027-2.512-2.733-3.956-.534-1.067.2-2.241,1.28-1.338a34.157,34.157,0,0,1,2.75,2.906Z" transform="translate(-64.077 -192.207)" fill="#303d5c"/>
    <path id="Path_257" data-name="Path 257" d="M213.817,752.256c-.32,5.015-.542,10.433,2.2,14.644.993,1.51,2.315,2.783,3.439,4.2a5.006,5.006,0,0,1,1.231,2.536c.156,1.839-1.568,3.414-3.382,3.759a10.922,10.922,0,0,1-5.426-.821,13.064,13.064,0,0,1-4.6-2.167c-2.389-2.019-3.021-5.385-3.5-8.471l-1.116-7.174a17.155,17.155,0,0,1,1.018-10.835l1.839-5.385a2.463,2.463,0,0,1,.821-1.338,2.283,2.283,0,0,1,1.4-.263c1.757.09,6.2.731,7.051,2.594C215.516,745.156,213.94,750.328,213.817,752.256Z" transform="translate(-63.984 -187.28)" fill="#ee8e9e"/>
    <path id="Path_258" data-name="Path 258" d="M213.817,752.256c-.32,5.015-.542,10.433,2.2,14.644.993,1.51,2.315,2.783,3.439,4.2a5.006,5.006,0,0,1,1.231,2.536c.156,1.839-1.568,3.414-3.382,3.759a10.922,10.922,0,0,1-5.426-.821,13.064,13.064,0,0,1-4.6-2.167c-2.389-2.019-3.021-5.385-3.5-8.471l-1.116-7.174a17.155,17.155,0,0,1,1.018-10.835l1.839-5.385a2.463,2.463,0,0,1,.821-1.338,2.283,2.283,0,0,1,1.4-.263c1.757.09,6.2.731,7.051,2.594C215.516,745.156,213.94,750.328,213.817,752.256Z" transform="translate(-63.984 -187.28)" opacity="0.05"/>
    <path id="Path_259" data-name="Path 259" d="M253.761,570.9a.915.915,0,0,1,0,.14,6.148,6.148,0,0,1-.673,2.027,29.158,29.158,0,0,0-2.594,10.458,9.175,9.175,0,0,1-.361,2.643,13.135,13.135,0,0,1-1.346,2.323c-1.6,2.6-1.97,5.746-2.5,8.725a68.944,68.944,0,0,1-3.053,11.442c-1.83,5.073-4.293,10.26-3.456,15.6a16.024,16.024,0,0,1,.476,3.833,11.131,11.131,0,0,1-1.5,4.03,38.414,38.414,0,0,0-1.642,3.735c-.534,1.362-1.01,2.758-1.428,4.17-.492,1.716-.821,3.751.312,5.13a6.26,6.26,0,0,1,.928,1.125,3.012,3.012,0,0,1,0,1.937q-.977,4.1-2.085,8.208c-.575,2.134-1.182,4.252-1.806,6.37-4.613,15.489-9.85,30.822-12.936,46.689-.443,2.282-3.374,3.915-5.639,4.416a7.387,7.387,0,0,1-6.485-1.732c-.156-.14-.3-.3-.443-.443-2.38-2.561-2.733-6.493-2.553-10.039.821-16.326,9.029-31.273,12.936-47.14a91.2,91.2,0,0,0,2.545-17.5c.911-19.7,1.28-40.532-4.293-59.469-1.157-3.94-2.528-8.389-.443-11.918,1.313-2.232,3.751-3.554,6.164-4.506a39.654,39.654,0,0,1,30.748.821,9.543,9.543,0,0,1-.049,1.182,12.115,12.115,0,0,0,.624,5.434,6.9,6.9,0,0,1,.558,2.315Z" transform="translate(-64.471 -154.584)" fill="#303d5c"/>
    <path id="Path_260" data-name="Path 260" d="M180.981,759.575l-1.042,3.792a42.982,42.982,0,0,1-2.216,6.674,28.66,28.66,0,0,0-1.97,4.531,14.06,14.06,0,0,0-.337,3.891,11.614,11.614,0,0,0,.533,3.686,9.152,9.152,0,0,0,5.368,5.089,25.016,25.016,0,0,0,7.469,1.4,6.044,6.044,0,0,0,1.962-.049,5.327,5.327,0,0,0,1.9-.993c3.464-2.536,5.245-7.215,5.557-11.492a14.119,14.119,0,0,0-.583-2.939c-.271-.361-2.889,1.116-1.765,2.356,1.642,1.822-3.193.878-5.655.722a21.276,21.276,0,0,1-3.209-.525L183,774.9c-1.305-.279-2.807-.731-3.283-1.978s.542-2.741,1.33-3.956c2.085-3.226,2.627-7.174,3.111-10.983.09-.747,1.026-5.6-.9-4.1a5.441,5.441,0,0,0-1.338,2.52C181.564,757.424,181.268,758.5,180.981,759.575Z" transform="translate(-59.179 -189.55)" fill="#303d5c"/>
    <path id="Path_261" data-name="Path 261" d="M235.939,661.4c-1.133-1.379-.821-3.415-.3-5.13.181-.64.386-1.272.6-1.9l-15.661-5.3c-.057,1.412-.123,2.807-.189,4.2a90.718,90.718,0,0,1-2.536,17.508c-3.915,15.858-12.132,30.806-12.936,47.124-.189,3.759.213,7.962,3,10.49a7.388,7.388,0,0,0,6.476,1.74c2.274-.5,5.2-2.142,5.647-4.424,3.1-15.867,8.315-31.191,12.936-46.7q2.159-7.215,3.891-14.545a2.988,2.988,0,0,0,0-1.929,5.739,5.739,0,0,0-.919-1.133Z" transform="translate(-64.46 -170.821)" opacity="0.05"/>
    <path id="Path_262" data-name="Path 262" d="M187.928,738.486c-1.239,2.134-3.127,4.022-3.415,6.468-.172,1.469.279,2.947.271,4.432a14.407,14.407,0,0,1-.648,3.62q-2.29,8.266-5.27,16.3a4.473,4.473,0,0,0-.419,2.216c.2,1.256,1.42,2.085,2.586,2.586,3.735,1.592,7.937,1.486,11.992,1.322a6.3,6.3,0,0,0,3.374-.821c1.453-.993,1.814-2.955,1.9-4.712.279-5.089-.583-10.2,0-15.259.205-1.847.591-3.661.878-5.491a15.986,15.986,0,0,0-.23-7.658,17.557,17.557,0,0,0-2.873-4.818A15.145,15.145,0,0,0,192.1,732.7c-.476-.279-1.83-1.149-2.315-.607-.246.279-.14,1.026-.172,1.371a14.38,14.38,0,0,1-.279,1.576,12.992,12.992,0,0,1-1.4,3.448Z" transform="translate(-59.724 -185.667)" fill="#ee8e9e"/>
    <path id="Path_263" data-name="Path 263" d="M222.754,577.245a4.308,4.308,0,0,0-.287,3.57c.517,2.167,1.387,4.244,2.093,6.353a88.4,88.4,0,0,1,2.692,11.557c.657,3.53,2.052,7.461,1.486,11.015a78.487,78.487,0,0,1,8.315,26.111c.32,2.339-4.876,5.36-4.777,7.716.2,4.7,3.94,5.073,1.182,8.816-.14.189,1.034,4.383.878,4.564-1.125,1.354-2.553,2.463-3.759,3.7a28.457,28.457,0,0,0-3.965,5.8c-7.141,12.9-17.467,27.531-14.282,41.936a2.553,2.553,0,0,1-1.363,2.586,7.06,7.06,0,0,1-3.021.7h-.492c-2.38-2.561-2.733-6.493-2.553-10.039.821-16.326,9.029-31.273,12.936-47.14a91.194,91.194,0,0,0,2.545-17.5c.911-19.7,1.28-40.532-4.293-59.469-1.157-3.94-2.528-8.389-.443-11.918,1.313-2.233,3.751-3.554,6.164-4.506a39.653,39.653,0,0,1,30.748.821,9.558,9.558,0,0,1-.049,1.182,12.117,12.117,0,0,0,.624,5.434,6.9,6.9,0,0,1,.616,2.364s.279-3.177.271-3.127c-6.361.911-13.076,5.073-19.495,6.017a45.494,45.494,0,0,0-9.776,2.151,4.4,4.4,0,0,0-1.995,1.3Z" transform="translate(-64.458 -154.576)" opacity="0.05"/>
    <path id="Path_264" data-name="Path 264" d="M171.876,537.5q-1.289,4.1-2.274,8.29a6.936,6.936,0,0,0-.23,2.98,19.889,19.889,0,0,1,.886,2.725c.148,1.478-.878,2.783-1.445,4.153-1.445,3.489.1,7.428,1.642,10.884l4.531,10.26,3.727,8.422q1.662,3.755,3.283,7.527a244.055,244.055,0,0,1,11.828,35.452,4.369,4.369,0,0,0,.607,1.543c.632.821,1.773,1.083,2.692,1.592a5.017,5.017,0,0,1,.558,8.011c.525,6.164-4.1,12.115-6.476,17.828-5.483,13.133-4.49,27.908-6.37,42.026l2.126-1.248c2.044.936,1.97,3.833,3.07,5.795,1.642,2.947,5.68,3.357,9.029,3.136a6.994,6.994,0,0,0,3.012-.7,2.545,2.545,0,0,0,1.363-2.586c-3.177-14.405,7.141-29.033,14.291-41.936a28.424,28.424,0,0,1,3.956-5.8c1.215-1.28,2.635-2.356,3.768-3.7,3.152-3.784,3.554-9.119,3.341-14.044a78.618,78.618,0,0,0-8.947-33.169c.575-3.546-.821-7.478-1.477-11.007a86.4,86.4,0,0,0-2.717-11.549c-.706-2.126-1.568-4.195-2.093-6.362a4.339,4.339,0,0,1,.287-3.571,4.424,4.424,0,0,1,2.019-1.305,45.491,45.491,0,0,1,9.776-2.151l22.023-3.16c.706-4.523,1.428-9.563.936-14.11a21.7,21.7,0,0,0-15.538-18.149,3.332,3.332,0,0,0-2.873.189,114.588,114.588,0,0,0-58.312,3.735Z" transform="translate(-57.896 -149.778)" fill="#303d5c"/>
    <path id="Path_265" data-name="Path 265" d="M193.553,391.546a10.81,10.81,0,0,1-.96,6.3,9.9,9.9,0,0,1-2.462,2.766,18.879,18.879,0,0,1-7.256,3.6c-1.56.394-3.283.657-4.342,1.9-1.543,1.863-.509,4.687.821,6.723,2.282,3.546,5.45,6.755,9.513,7.864,3.283.886,6.706.345,10.022.919,2.405.419,4.671,1.412,7.043,1.978a20.8,20.8,0,0,0,19.1-5.327c-3.53-2.709-7.19-5.59-9.029-9.645a13.683,13.683,0,0,1-.69-9.226c.821-3,2.75-5.926,2.159-9.029s-3.612-5.179-6.567-6.214a42.852,42.852,0,0,0-8.323-1.65c-1.551-.213-11.4-2.389-12.017-1.313-.345.607,1.7,4.2,1.954,5a19.011,19.011,0,0,1,1.034,5.352Z" transform="translate(-59.602 -122.773)" fill="#ee8e9e"/>
    <circle id="Ellipse_43" data-name="Ellipse 43" cx="19.979" cy="19.979" r="19.979" transform="translate(126.391 236.005)" fill="#ee8e9e"/>
    <path id="Path_266" data-name="Path 266" d="M190.523,417.061l13.552,2.282a50.7,50.7,0,0,0,10.121,1.018,28.2,28.2,0,0,1,5.582,0c1.28.213,2.5.7,3.784.862,1.584.2,3.193-.107,4.777.1,2.939.378,5.36,2.413,7.593,4.359,2.618,2.282,5.434,4.925,5.639,8.414a2.553,2.553,0,0,1-.164,1.166,3.423,3.423,0,0,1-1.01,1.051c-2.462,2.044-3.882,5.089-5.655,7.781a29.984,29.984,0,0,1-6.731,7.264c-.591-.378-1.716.616-1.461,1.272s.9,1.108,1.116,1.773c.484,1.535-1.412,2.668-2.2,4.1s-.386,3.185-.468,4.818c-.1,1.8-.821,3.513-1.042,5.294-.55,4.162,1.51,8.545.057,12.477,1.781-.222,3.39,1.313,3.891,3.029a11.45,11.45,0,0,1-.156,5.319,7.313,7.313,0,0,1,3.546,6.682,1.149,1.149,0,0,0,.821,1.592,6.764,6.764,0,0,1,4.162,6.263,3.135,3.135,0,0,0,.123,1.33,2.938,2.938,0,0,0,.977,1.01,7.781,7.781,0,0,1,2.906,6.09,4.4,4.4,0,0,1-2.06,4,36.511,36.511,0,0,1-9.1,2.709,80.09,80.09,0,0,1-8.807,1.568,81.139,81.139,0,0,1-8.208.254l-18.124-.074c-5.1,0-10.195,0-15.276-.386-4.744-.32-9.6-.911-14.192.337-.575-.977.345-2.1.911-3.078a10.243,10.243,0,0,0,1.034-4.268l1.149-12.074a22.218,22.218,0,0,0,.09-5.007c-.246-1.781-.919-3.464-1.264-5.229-.657-3.382-.057-6.879-.213-10.326a47.286,47.286,0,0,0-1.584-9.029l-3.6-14.775c-.575-2.372-.878-5.13-1.765-7.387q-4.145-10.671-8.693-21.112a2.241,2.241,0,0,1,.164-1.871l3-5.368a33.972,33.972,0,0,1,2.742-4.375,17.237,17.237,0,0,1,10.113-6.205,17.828,17.828,0,0,1,11.762,1.74c1.4.747,2.692,1.642,4.1,2.38C184.884,415.977,187.839,417.241,190.523,417.061Z" transform="translate(-54.709 -128.055)" fill="#2cc3e9"/>
    <path id="Path_267" data-name="Path 267" d="M255.7,434.55l4.72,6.3a8.763,8.763,0,0,1,1.1,1.74c.706,1.642.32,3.579.7,5.344a11.266,11.266,0,0,0,1.387,3.193,71.818,71.818,0,0,0,6,8.922,15.456,15.456,0,0,0,3.735,3.686,6.14,6.14,0,0,0,5.023.895,3.094,3.094,0,0,0-1.642,1.494,18.292,18.292,0,0,0-1.166,11.689,11.82,11.82,0,0,0,1.313,3.825,5.68,5.68,0,0,0,3,2.6,4.416,4.416,0,0,1-5.212,3.743,8.483,8.483,0,0,1-2.586-1.289l-7.584-4.925a21.1,21.1,0,0,1-3.53-2.651c-1.42-1.412-2.4-3.2-3.784-4.654-2.348-2.462-5.795-3.973-7.453-6.961-1.042-1.871-1.223-4.1-1.863-6.123-.419-1.338-1.034-2.6-1.436-3.948-1.248-4.153-.345-8.709,1.551-12.608S252.893,437.866,255.7,434.55Z" transform="translate(-71.802 -132.386)" fill="#2cc3e9"/>
    <path id="Path_268" data-name="Path 268" d="M220.631,359.906a26.479,26.479,0,0,0-7.026-7.314c-3.735-2.783-8.028-5.1-12.682-5.36a13.725,13.725,0,0,0-5.7.927c-.09-5.639-1.486-9.4-5.015-8.832-6.567,1.059-13.872,3.587-16.417,9.743-1.9,4.654-.427,9.891.057,14.89a11.491,11.491,0,0,1-.14,3.965c-.542,2.11-2.036,3.817-3.48,5.45a28.9,28.9,0,0,0-5,7.01,10.189,10.189,0,0,0-.337,8.373,6.033,6.033,0,0,1,.821,2.208c.082,1.707-1.707,2.791-3.021,3.882-4.925,4.1-4.72,11.492-4.761,17.919a90.873,90.873,0,0,1-8.528,37.914,11.582,11.582,0,0,0,12.944-1.691,43.13,43.13,0,0,1-2.939,8.471c4.17,2.019,9.2-1.3,11.295-5.434s2.339-8.947,3.825-13.338,4.1-8.208,5.262-12.632a11.753,11.753,0,0,1,1.494-4.236,11.147,11.147,0,0,1,2.627-2.241c4.3-3.086-2.036-26.472-.353-31.5,2.462.55,7.1-11.492,9.719-23.8a12.394,12.394,0,0,0,5.688.566,7.039,7.039,0,0,1,2.027-.139,5.22,5.22,0,0,1,1.773.722,44.867,44.867,0,0,0,6.058,3.111c4.334,1.642,9.095,1.4,13.716,1.174a13.667,13.667,0,0,0-1.9-9.809Z" transform="translate(-54.521 -115.315)" fill="#303d5c"/>
    <g id="Group_145" data-name="Group 145" transform="translate(94.879 223.99)" opacity="0.1">
      <path id="Path_269" data-name="Path 269" d="M151.748,450.688a90.627,90.627,0,0,0,8.569-37.881c.041-6.4-.172-13.839,4.761-17.919,1.313-1.092,3.1-2.175,3.021-3.883a6.164,6.164,0,0,0-.821-2.208,10.319,10.319,0,0,1,.328-8.372,28.728,28.728,0,0,1,5.007-7.01c1.436-1.642,2.939-3.341,3.472-5.45a11.673,11.673,0,0,0,.148-3.965c-.493-5-1.954-10.236-.057-14.89,2.462-5.959,9.349-8.512,15.752-9.628a3.6,3.6,0,0,0-1.724-.115c-6.567,1.059-13.872,3.587-16.417,9.743-1.9,4.654-.427,9.891.057,14.89a11.491,11.491,0,0,1-.14,3.965c-.542,2.11-2.036,3.817-3.48,5.45a28.9,28.9,0,0,0-5,7.01,10.189,10.189,0,0,0-.337,8.372,6.032,6.032,0,0,1,.821,2.208c.082,1.707-1.707,2.791-3.021,3.883-4.925,4.1-4.72,11.492-4.761,17.919a90.874,90.874,0,0,1-8.528,37.881,11.229,11.229,0,0,0,6.345,1.19,10.835,10.835,0,0,1-4-1.19Z" transform="translate(-149.4 -339.313)"/>
      <path id="Path_270" data-name="Path 270" d="M163.929,481.371a43.132,43.132,0,0,0,2.914-8.471,10.951,10.951,0,0,1-2.84,1.88,42.949,42.949,0,0,1-2.463,6.567,6.238,6.238,0,0,0,3.858.493A6.129,6.129,0,0,1,163.929,481.371Z" transform="translate(-151.575 -363.248)"/>
      <path id="Path_271" data-name="Path 271" d="M208.076,349.9a13.763,13.763,0,0,1,3.809-.886h-.451a13.372,13.372,0,0,0-3.374.254C208.068,349.451,208.076,349.673,208.076,349.9Z" transform="translate(-159.91 -341.048)"/>
      <path id="Path_272" data-name="Path 272" d="M222.536,374.058a44.769,44.769,0,0,1-6.049-3.111,5.255,5.255,0,0,0-1.781-.722,6.15,6.15,0,0,0-1.855.115,7.607,7.607,0,0,1,1.281.607,44.876,44.876,0,0,0,6.058,3.111,27.086,27.086,0,0,0,10.129,1.313A23.754,23.754,0,0,1,222.536,374.058Z" transform="translate(-160.768 -344.847)"/>
      <path id="Path_273" data-name="Path 273" d="M205.685,369.71a2.552,2.552,0,0,1-.115.542,12.413,12.413,0,0,0,2.971.082A13.132,13.132,0,0,1,205.685,369.71Z" transform="translate(-159.464 -344.759)"/>
    </g>
    <path id="Path_274" data-name="Path 274" d="M149.23,466.913a7.338,7.338,0,0,1-1.97,5.836,12.936,12.936,0,0,1-2.783,2.044,7.387,7.387,0,0,1-3.283,1.239,6.247,6.247,0,0,1-4.219-1.83c-3.48-3.053-5.22-7.576-6.829-11.918-2.126-5.746-4.244-11.549-5.155-17.615-.977-6.5-.558-13.232-2.421-19.544,1.642-3.283,2.709-6.944,4.588-10.129a47.175,47.175,0,0,0,3.16-5.926,20.521,20.521,0,0,0,.558-13.675,1.855,1.855,0,0,1,2.183.115,4.522,4.522,0,0,1,1.313,1.912,16.958,16.958,0,0,1,1.313,8.036,3.119,3.119,0,0,0,.222,1.962,2.463,2.463,0,0,0,2.134.9,19.266,19.266,0,0,0,4.925-.895,45.758,45.758,0,0,1,15.193-1.256,7.329,7.329,0,0,1,2.963.722,2.758,2.758,0,0,1,1.527,2.462L150.5,411.138a5.006,5.006,0,0,0-2.553.87,1.724,1.724,0,0,0-.345,2.405,5.639,5.639,0,0,0,.821.558,2.463,2.463,0,0,1-.1,4,2.823,2.823,0,0,0-.821.575c-.492.665.164,1.543.378,2.348a2.963,2.963,0,0,1-1.461,3.029,10.155,10.155,0,0,1-3.39,1.141,36.35,36.35,0,0,0-6.936,2.356,3.809,3.809,0,0,0-1.806,1.354c-.6,1.018-.205,2.3.205,3.406l3.168,8.52a37.688,37.688,0,0,0,1.642,3.965c.821,1.642,1.8,3.234,2.627,4.925a51.3,51.3,0,0,1,1.978,4.769C145.5,459.7,148.689,462.324,149.23,466.913Z" transform="translate(-49.714 -125.317)" fill="#ee8e9e"/>
    <rect id="Rectangle_85" data-name="Rectangle 85" width="37.865" height="36.658" transform="translate(209.138 286.322)" fill="url(#linear-gradient)"/>
    <rect id="Rectangle_86" data-name="Rectangle 86" width="36.56" height="35.394" transform="translate(209.795 286.954)" fill="#7cfcff"/>
    <path id="Path_275" data-name="Path 275" d="M325.909,412.163a3.776,3.776,0,0,0-1.387,2.028.821.821,0,0,0,.32.919.919.919,0,0,0,.558,0,5.213,5.213,0,0,0,2.462-1.157,2.462,2.462,0,0,0-.731.591.821.821,0,0,0-.1.887,1.157,1.157,0,0,0,.821.419,7.855,7.855,0,0,0,3.521-.164,4.835,4.835,0,0,0-1.461.862,1.962,1.962,0,0,0-.665,1.519.755.755,0,0,0,.263.566.946.946,0,0,0,.394.14,9.491,9.491,0,0,0,3.283,0,1.683,1.683,0,0,0,1.379-.821,2.069,2.069,0,0,0-.32-1.584,8.856,8.856,0,0,1-.821-4.006,1.575,1.575,0,0,0-.115-.821,1.461,1.461,0,0,0-.731-.534c-1.157-.509-2.733-1.215-4.022-.821A8.464,8.464,0,0,0,325.909,412.163Z" transform="translate(-85.891 -128)" fill="#ee8e9e"/>
  </g>
</svg>
